<svg enable-background="new 0 0 156 51.01" version="1.1" viewBox="0 0 156 51.01" width="156" height="51" xmlns="http://www.w3.org/2000/svg"><path d="m126.42 0.089844c-5.53 0-10.219 3.3209-12.109 7.8809l-4.8398 14.479-0.02148-21.629h-23.289c-4.21 0-7.9993 1.6491-10.779 4.3691l0.009766-4.3594h-23.852c-4.44 0-8.4786 1.9006-11.309 4.8906v-4.9102l-22.51 0.029297c-9.7-0.01-17.66 7.5904-17.67 17.65 0 4.67 2.0295 8.8798 5.0195 12.01h-5.0703v20.5h22.66c6.36 0 12.67-3.8607 14.85-8.4707l0.070312-0.18945c2.53 5.13 7.8197 8.6699 13.93 8.6699h23.82l0.009766-4.4395c2.8 2.74 6.6294 4.4199 10.859 4.4199l66.971 0.009766-14.631-43.119c-1.97-4.57-6.5791-7.791-12.119-7.791z" fill="#fff"/><path d="m126.49 3.6191c-4.35 0-7.9998 2.7009-9.0898 6.3809l-11.451 33.711v-24.531l-16.959 0.009765v5.6504h11.311v16.949h-14.15c-3.51 0-6.3501-2.9284-6.3301-6.3984v-19.08c-0.019999-3.48 2.8298-6.3301 6.3398-6.3301l19.789 0.019531v-5.6699h-19.85c-6.63 0-12.009 5.3798-11.939 12.01v19.08c-0.07 6.63 5.3505 12.01 11.98 12.01l18.543 0.009765-0.0039 0.009766h5.9512l12.279-36.289c0.49-1.49 1.9005-2.5703 3.5605-2.5703 1.66-1e-7 3.0098 1.01 3.5098 2.5l10.389 30.699h-16.439v5.6602h24.27l-12.619-37.449c-1.1-3.68-4.7498-6.3809-9.0898-6.3809zm-108.85 0.71094c-7.81 0-14.141 6.3306-14.141 14.141s6.3304 14.148 14.15 14.148h4.9297c0.38 0 0.68945 0.31141 0.68945 0.69141s-0.30945 0.68945-0.68945 0.68945l-19.08 0.019531v5.6504h19.1c3.51 0 6.3613-2.8494 6.3613-6.3594s-2.8513-6.3613-6.3613-6.3613h-4.959c-4.68 0-8.4805-3.7985-8.4805-8.4785s3.8005-8.4805 8.4805-8.4805h19.07l-0.011719-5.6602h-19.059zm33.85 0c-6.63 0-12.001 5.38-11.961 12v19.09c0 6.63 5.3798 12.01 12.01 12.01l20.262 0.009765-0.011719-5.6504-20.389 0.011719c-3.31 0-6.2109-3.0104-6.2109-5.4004l-0.009765-20.061c0-3.51 2.8494-6.3594 6.3594-6.3594l20.25 0.0097656v-5.6602h-20.299zm74.98 6.4004c-0.74 0-1.3708 0.50922-1.5508 1.1992l-11.99 35.52h6.6797l4.2949-12.715 0.01562 5.0059h13.529l-9.4297-27.811c-0.18-0.69-0.79883-1.1992-1.5488-1.1992zm-108.83 1.3691c-3.51 0-6.3613 2.8513-6.3613 6.3613 0 3.51 2.8513 6.3594 6.3613 6.3594h4.959c4.68 0 8.4805 3.8005 8.4805 8.4805s-3.8005 8.4785-8.4805 8.4785l-19.1 0.009765v5.6816l19.1-0.009765c7.81 0 14.15-6.3304 14.15-14.15 0-7.81-6.3304-14.15-14.15-14.15l-4.959 0.019532c-0.4 0-0.7207-0.31875-0.7207-0.71875 0-0.4 0.3207-0.7207 0.7207-0.7207l19.059 0.019532 0.011719-5.6504-19.07-0.009766zm33.898 0.009766c-2.34 0-4.2285 1.8905-4.2285 4.2305h-0.009766v8.4902h20.299v-5.6602h-14.709s0.019688-1.4102 1.4297-1.4102h17.48v-5.6504h-20.262zm34.621 0c-2.33 0-4.2305 1.8905-4.2305 4.2305v19.09h0.009765c0 2.33 1.8905 4.2305 4.2305 4.2305l12.029 0.019532v-12.73h-9.1992v5.6504h3.5391v1.4199l-3.5391-0.009765c-0.78 0-1.4102-0.63016-1.4102-1.4102l-0.009766-13.43s-0.049609-1.4202 1.4004-1.4102h16.98v-5.6504h-19.801zm-38.85 14.84v8.5117c0 2.33 1.9002 4.209 4.2402 4.209h20.238l0.011719-5.6602h-17.48c1e-6 0-1.4097-1.57e-4 -1.4297-1.4102h14.719v-5.6504h-20.299zm79.17 0.16016 2.1094 6.291h-4.2344l2.125-6.291z" fill="#00337e"/><path d="m148.32 0c-4.23 0-7.6699 3.4399-7.6699 7.6699 0 2.05 0.8 3.9797 2.25 5.4297s3.3699 2.25 5.4199 2.25 3.9797-0.8 5.4297-2.25 2.25-3.3797 2.25-5.4297-0.8-3.9797-2.25-5.4297c-1.45-1.44-3.3797-2.2402-5.4297-2.2402zm0 1.0703c1.76 0 3.4199 0.68969 4.6699 1.9297 1.25 1.25 1.9297 2.9099 1.9297 4.6699 0 3.64-2.9596 6.5996-6.5996 6.5996-1.76 0-3.4199-0.68969-4.6699-1.9297-1.24-1.24-1.9297-2.8999-1.9297-4.6699 0-1.76 0.68969-3.4199 1.9297-4.6699 1.25-1.25 2.9099-1.9297 4.6699-1.9297zm-3.0801 2.3496v8.5195h1.1094v-3.6191-0.0097656h2.2012l2.3086 3.6191h1.3516l-2.3906-3.6895c0.41-0.07 2.0098-0.34984 2.0098-2.3398 0-0.78-0.26063-1.4909-0.89063-1.9609-0.66-0.51-1.3591-0.50953-2.5391-0.51953h-3.1602zm1.1094 0.94922h2.1894c0.65 0 1.2004-0.0086719 1.6504 0.36133 0.49 0.4 0.50977 0.96945 0.50977 1.1895 0 0.62-0.27859 1.1909-1.0586 1.3809-0.34 0.08-0.68101 0.080078-1.041 0.080078h-2.25v-3.0117z" fill="#fff"/></svg>
